<svg version="1.1" xmlns="http://www.w3.org/2000/svg" viewBox="0 0 580 460.7324470643039" width="1740" height="1382.1973411929118">
  <!-- svg-source:excalidraw -->
  
  <defs>
    <style>
      @font-face {
        font-family: "Virgil";
        src: url("https://excalidraw.com/Virgil.woff2");
      }
      @font-face {
        font-family: "Cascadia";
        src: url("https://excalidraw.com/Cascadia.woff2");
      }
    </style>
  </defs>
  <g stroke-linecap="round" transform="translate(10 10.732447064303926) rotate(0 60 50)"><path d="M0.58 -2.98 C32.51 -1.57, 66.82 -0.81, 122.06 -0.36 M1.99 -0.08 C35.9 -1.1, 72.09 -2.77, 121.53 0.09 M122.02 3.58 C115.03 23.68, 118.7 44.3, 118.2 101.57 M119.73 0.86 C118.51 27.96, 117.17 58.15, 120.19 101.1 M119.06 96.2 C89.32 103.45, 57.18 97.37, 0.01 96.67 M118.72 100.4 C84.78 99.65, 54.14 101.68, -1.96 101.1 M-2.32 101.75 C2.52 69.78, -1.72 49.06, -1.5 -1.84 M-1.69 101.43 C-1.39 66.29, -1.55 31.91, -0.51 1.22" stroke="#495057" stroke-width="1" fill="none"></path></g><g stroke-linecap="round" transform="translate(230 10.732447064303926) rotate(0 60 50)"><path d="M-2.64 -0.37 C36.22 -3.11, 76.17 4.36, 122.28 -2.41 M0.76 0.95 C34.76 0.84, 70.64 -1.05, 121.7 0.53 M121.6 0.82 C118.78 21.96, 124.41 36.75, 119.08 102.11 M119.82 1.42 C117.39 27.69, 117.51 52.19, 118.27 98.67 M117.9 97.78 C89.02 98.23, 51.16 104.55, 2.99 101.15 M118.05 100.82 C90.35 102.92, 55.09 101.78, -0.09 100.87 M0.15 97.07 C-1.56 75.44, -0.71 52.23, -2.83 -0.62 M-0.2 98.25 C1.85 77.27, 0.37 58.3, 1.88 0.59" stroke="#364fc7" stroke-width="1" fill="none"></path></g><g stroke-linecap="round" transform="translate(450 10) rotate(0 60 50)"><path d="M0.8 -2.89 C37.58 4.94, 82.21 -2.38, 122.2 -1.39 M0.87 1.66 C38.95 0.93, 82.65 0.64, 119.08 0.68 M122.87 -3.14 C120.76 25.61, 118.77 57.12, 122.45 101.42 M118.69 -1.5 C120.74 26.25, 119.46 48.76, 118.89 101.06 M123.28 96.22 C96.7 102.05, 73.13 100.37, 2.59 98.98 M120.39 100.29 C84.99 98.43, 46.77 98.06, 0.05 101.51 M-3.27 100.85 C2.7 74.76, 2.92 39.21, 1.33 -3.71 M0.22 99.28 C-2.41 63.99, 0.23 26.12, 0.34 -1.99" stroke="#5c940d" stroke-width="1" fill="none"></path></g><g stroke-opacity="0.5" fill-opacity="0.5" stroke-linecap="round" transform="translate(50 150.73244706430393) rotate(0 20 150)"><path d="M2.66 2.31 C2.66 2.31, 2.66 2.31, 2.66 2.31 M2.66 2.31 C2.66 2.31, 2.66 2.31, 2.66 2.31 M0.43 10.98 C5.31 5.32, 4.9 6.26, 10.27 -0.34 M0.43 10.98 C3.23 7.61, 6.28 3.18, 10.27 -0.34 M0.83 16.62 C6.45 11.04, 12.04 3.81, 13.29 2.28 M0.83 16.62 C4.05 11.25, 10.36 6.43, 13.29 2.28 M0.57 23.02 C3.89 15.59, 17.06 7.49, 18.28 2.64 M0.57 23.02 C4.37 19.45, 9.59 15.23, 18.28 2.64 M0.96 28.66 C8.5 24.48, 7.59 17.7, 23.27 3 M0.96 28.66 C8.18 20.82, 13.52 13.04, 23.27 3 M0.7 35.06 C12.76 28.44, 14.9 15.7, 28.25 3.36 M0.7 35.06 C9.36 22.77, 21.91 13.35, 28.25 3.36 M0.44 41.46 C8.22 31.62, 13.79 18.34, 35.21 1.46 M0.44 41.46 C11.17 30.97, 19.06 23.58, 35.21 1.46 M0.83 47.1 C11.8 40.41, 17.1 26.26, 38.88 3.33 M0.83 47.1 C14.52 30.39, 29.02 11.2, 38.88 3.33 M0.57 53.5 C14.96 33.64, 28.04 15.76, 39.93 8.21 M0.57 53.5 C9.59 42.37, 20.99 31.26, 39.93 8.21 M0.96 59.14 C14 43.14, 28.92 25.93, 42.3 11.59 M0.96 59.14 C19.15 40.58, 33.88 21.35, 42.3 11.59 M0.7 65.54 C20.14 50.76, 31.6 30.84, 42.04 17.99 M0.7 65.54 C9.92 56.88, 18.55 46.76, 42.04 17.99 M0.44 71.93 C16.01 54.5, 25.51 45.43, 41.77 24.39 M0.44 71.93 C13.55 58.26, 26.57 42.53, 41.77 24.39 M0.84 77.58 C13.55 65.16, 20.72 51.92, 42.17 30.03 M0.84 77.58 C11.01 63.26, 23.38 50.81, 42.17 30.03 M0.57 83.98 C11.64 69.84, 24.99 51.17, 41.91 36.43 M0.57 83.98 C16.17 67.61, 31.29 49, 41.91 36.43 M0.97 89.62 C17.29 69.84, 28.25 56.61, 42.3 42.07 M0.97 89.62 C14.72 72.03, 27.53 57.71, 42.3 42.07 M0.71 96.02 C17.59 77.63, 25.91 63.41, 42.04 48.47 M0.71 96.02 C11.79 79.6, 26 65.75, 42.04 48.47 M0.45 102.41 C10.73 87.7, 21.29 79.46, 41.78 54.87 M0.45 102.41 C8.89 90.68, 21.93 78.09, 41.78 54.87 M0.84 108.06 C13.66 98.76, 20.6 79.68, 42.17 60.51 M0.84 108.06 C14.49 92.17, 27.97 75.77, 42.17 60.51 M0.58 114.46 C15.28 104.35, 20.68 85.34, 41.91 66.91 M0.58 114.46 C14.57 99.53, 28.57 83.07, 41.91 66.91 M0.97 120.1 C13.94 103.01, 34.69 85.78, 42.31 72.55 M0.97 120.1 C15.96 103.13, 29.04 86.89, 42.31 72.55 M0.71 126.5 C16.94 108.75, 29.87 91.12, 42.04 78.95 M0.71 126.5 C11.4 115.08, 24.65 103.25, 42.04 78.95 M0.45 132.89 C15.61 116.28, 26.78 97.02, 41.78 85.35 M0.45 132.89 C15.35 116.17, 25.98 102.8, 41.78 85.35 M0.85 138.54 C17.15 124, 30.03 106.93, 42.18 90.99 M0.85 138.54 C9.31 125.93, 19.74 115.53, 42.18 90.99 M0.58 144.93 C14.28 128.64, 33.19 106.76, 41.92 97.39 M0.58 144.93 C11.91 131.2, 25.17 113.42, 41.92 97.39 M0.98 150.58 C15.27 134.71, 27.71 121.55, 42.31 103.03 M0.98 150.58 C14.92 133.91, 25.25 122.32, 42.31 103.03 M0.72 156.98 C15.4 143.22, 26.22 133.29, 42.05 109.43 M0.72 156.98 C12.87 143.37, 22.17 131.39, 42.05 109.43 M0.46 163.37 C10.86 149.95, 23.61 140.86, 41.79 115.83 M0.46 163.37 C13.05 148.52, 23.82 133.91, 41.79 115.83 M0.85 169.02 C10.14 155.84, 27.15 137.5, 42.18 121.47 M0.85 169.02 C8.28 158.52, 16.85 150.05, 42.18 121.47 M0.59 175.41 C12.62 160.28, 30.75 146.85, 41.92 127.87 M0.59 175.41 C17.9 157.68, 33.41 138.79, 41.92 127.87 M0.98 181.06 C12.62 163.62, 22.12 150.96, 42.32 133.51 M0.98 181.06 C10.16 169.01, 20.56 155.23, 42.32 133.51 M0.72 187.46 C18.19 172.54, 29.12 154.42, 42.05 139.91 M0.72 187.46 C14.36 172.71, 27.47 154.55, 42.05 139.91 M0.46 193.85 C11.19 181.77, 18.48 174.67, 41.79 146.31 M0.46 193.85 C9.62 182.41, 16.66 172.98, 41.79 146.31 M0.86 199.5 C17.48 184.85, 26.07 172.4, 42.19 151.95 M0.86 199.5 C13.5 183.47, 27.51 165.1, 42.19 151.95 M0.59 205.89 C14.21 190.98, 18.3 184.05, 41.93 158.35 M0.59 205.89 C14.44 189.18, 31.25 171.22, 41.93 158.35 M0.99 211.54 C15.14 199.56, 22.05 188.97, 42.32 163.99 M0.99 211.54 C14.94 196.13, 28.67 178.86, 42.32 163.99 M0.73 217.93 C14.24 204.49, 22.31 189.42, 42.06 170.39 M0.73 217.93 C11.37 205.16, 21.76 195.27, 42.06 170.39 M0.47 224.33 C12.64 214.97, 17.11 200.4, 41.8 176.79 M0.47 224.33 C10.81 210.98, 23.98 197.16, 41.8 176.79 M0.86 229.98 C14.53 210.32, 24.64 200.76, 42.19 182.43 M0.86 229.98 C13.33 212.28, 30.39 196.48, 42.19 182.43 M0.6 236.37 C6.33 225.17, 16.81 212.38, 41.93 188.83 M0.6 236.37 C14.38 223.58, 25.21 209.82, 41.93 188.83 M0.99 242.02 C14.41 230.03, 29.92 215.99, 42.33 194.47 M0.99 242.02 C11.59 233.11, 17.83 220.39, 42.33 194.47 M0.73 248.41 C7.95 235.88, 20.68 223.86, 42.06 200.87 M0.73 248.41 C11.98 237.01, 18.3 226.4, 42.06 200.87 M0.47 254.81 C17.14 235.95, 29.71 215.17, 41.8 207.27 M0.47 254.81 C10.32 245.09, 20.21 231.35, 41.8 207.27 M0.87 260.45 C14.87 250.15, 24.42 236.74, 42.2 212.91 M0.87 260.45 C11.45 250.16, 20.29 237.53, 42.2 212.91 M0.6 266.85 C13.47 252.27, 33.24 234.13, 41.94 219.31 M0.6 266.85 C13.02 251.39, 25.7 237.96, 41.94 219.31 M1 272.5 C11.69 259.69, 21.58 247.23, 42.33 224.95 M1 272.5 C15.92 255.28, 28.9 237.97, 42.33 224.95 M0.74 278.89 C12.76 259.04, 27.33 247.9, 42.07 231.35 M0.74 278.89 C10.74 265.43, 23.23 254.58, 42.07 231.35 M0.48 285.29 C7.58 272.54, 25.09 264.03, 41.81 237.74 M0.48 285.29 C10.24 275.47, 20.35 263.04, 41.81 237.74 M0.87 290.93 C11.23 276.56, 24.09 266.17, 42.2 243.39 M0.87 290.93 C14.29 273.99, 27.5 259.88, 42.2 243.39 M2.58 295.07 C20.12 278.62, 26.24 268.04, 41.94 249.79 M2.58 295.07 C16.81 280.43, 26.24 264.11, 41.94 249.79 M4.28 299.2 C19.22 281.39, 31.45 263.77, 42.34 255.43 M4.28 299.2 C13.99 285.89, 24.5 274.17, 42.34 255.43 M7.96 301.07 C19.65 287.64, 27.54 274.97, 42.07 261.83 M7.96 301.07 C17.62 292.58, 26.74 281.26, 42.07 261.83 M12.95 301.43 C24.15 287.16, 33 273.18, 41.81 268.22 M12.95 301.43 C24.16 287.28, 37.22 275.2, 41.81 268.22 M17.93 301.79 C22.75 294.31, 34.05 287.95, 42.21 273.87 M17.93 301.79 C21.96 297, 27.02 287.91, 42.21 273.87 M23.58 301.4 C26.98 297.22, 35.66 287.56, 41.95 280.26 M23.58 301.4 C28.39 293.68, 36.33 286.07, 41.95 280.26 M29.87 300.25 C31.66 298.56, 37.61 289.53, 42.34 285.91 M29.87 300.25 C33.91 298.09, 36.29 293.04, 42.34 285.91" stroke="#868e96" stroke-width="0.5" fill="none"></path><path d="M10 0 M10 0 C19.77 -1.27, 21.81 -0.2, 30 0 M10 0 C17.76 2.24, 24.28 0.56, 30 0 M30 0 C34.17 -2.4, 41.58 6.12, 40 10 M30 0 C35.43 -3.6, 36.45 2.7, 40 10 M40 10 C36.14 112.69, 35.84 212.97, 40 290 M40 10 C41.43 91.82, 41.47 177.14, 40 290 M40 290 C36.33 292.73, 38.03 303.69, 30 300 M40 290 C35.79 292.11, 36.92 296.57, 30 300 M30 300 C23.5 299.88, 20.42 296.44, 10 300 M30 300 C25.71 300.68, 19.76 301.05, 10 300 M10 300 C3.72 301.76, -3.32 296.87, 0 290 M10 300 C6.15 298.79, -3.5 298.39, 0 290 M0 290 C3.24 180.94, 0.04 73.5, 0 10 M0 290 C-1.26 183.52, -1.54 77.48, 0 10 M0 10 C-0.42 5.85, 5.38 -3.6, 10 0 M0 10 C-3.87 5.28, 2.93 0.83, 10 0" stroke="#495057" stroke-width="1" fill="none"></path></g><g stroke-opacity="0.7" fill-opacity="0.7" stroke-linecap="round" transform="translate(270 149.59767815523747) rotate(0 20 60)"><path d="M2.66 2.31 C2.66 2.31, 2.66 2.31, 2.66 2.31 M2.66 2.31 C2.66 2.31, 2.66 2.31, 2.66 2.31 M0.43 10.98 C3.57 8.93, 4.62 6.59, 10.27 -0.34 M0.43 10.98 C3.48 6.74, 7.63 2.68, 10.27 -0.34 M0.83 16.62 C1.75 12.49, 5.65 9.47, 13.29 2.28 M0.83 16.62 C4.29 12.47, 7.54 8.32, 13.29 2.28 M0.57 23.02 C6.52 18.31, 9.86 8.94, 18.28 2.64 M0.57 23.02 C6.36 15.37, 13.34 7.65, 18.28 2.64 M0.96 28.66 C6.7 20.92, 15.7 13.82, 23.27 3 M0.96 28.66 C7.69 21.34, 13.67 13.96, 23.27 3 M0.7 35.06 C9.63 23.45, 20.54 9.62, 28.25 3.36 M0.7 35.06 C9.93 24.73, 20 13.1, 28.25 3.36 M1.09 40.7 C8.35 33.56, 16.91 23.89, 35.21 1.46 M1.09 40.7 C10.85 29.71, 20.95 17.29, 35.21 1.46 M0.83 47.1 C7.98 38.03, 15.34 27.18, 38.23 4.08 M0.83 47.1 C11.84 35.47, 21.86 22.28, 38.23 4.08 M1.23 52.74 C14.62 35.8, 32.12 19.94, 41.25 6.7 M1.23 52.74 C14.46 38.44, 25.99 25.79, 41.25 6.7 M0.96 59.14 C9.67 47.16, 20.4 38.28, 40.98 13.1 M0.96 59.14 C9.15 48.19, 17.43 38.73, 40.98 13.1 M1.36 64.78 C15.26 50.06, 24.37 36.78, 40.72 19.5 M1.36 64.78 C13.29 50.21, 25.06 37.19, 40.72 19.5 M1.1 71.18 C8.2 61.46, 17.18 49.47, 41.12 25.14 M1.1 71.18 C12.4 57.12, 24.97 44.12, 41.12 25.14 M0.84 77.58 C10.92 63.49, 23.02 50.57, 40.86 31.54 M0.84 77.58 C13.25 62.52, 26.69 48.35, 40.86 31.54 M1.23 83.22 C12.81 67.81, 29.19 51.8, 41.25 37.18 M1.23 83.22 C11.78 72.49, 21.55 59.63, 41.25 37.18 M0.97 89.62 C18.4 70.08, 33.82 52.81, 40.99 43.58 M0.97 89.62 C11.14 77.96, 20.05 66.34, 40.99 43.58 M1.36 95.26 C12.21 83.3, 19.64 72.87, 41.38 49.22 M1.36 95.26 C13.37 81.82, 24.11 69.05, 41.38 49.22 M1.1 101.66 C11.49 88.81, 23.2 79.47, 41.12 55.62 M1.1 101.66 C13.21 87.66, 25.27 75.78, 41.12 55.62 M1.5 107.3 C17 90.35, 34.45 72.57, 41.52 61.27 M1.5 107.3 C10.31 97.05, 19.28 86.42, 41.52 61.27 M0.58 114.46 C11.07 104.91, 19.42 93.62, 41.26 67.66 M0.58 114.46 C13.34 98.79, 26.8 84.24, 41.26 67.66 M3.6 117.08 C19.06 101.09, 28.94 85.35, 41.65 73.31 M3.6 117.08 C15.92 103.76, 27.99 88.59, 41.65 73.31 M6.62 119.7 C16.2 108.15, 25.7 96.4, 41.39 79.7 M6.62 119.7 C15.79 108.41, 25.91 98.92, 41.39 79.7 M11.6 120.06 C19.59 109.97, 24.8 103.93, 41.13 86.1 M11.6 120.06 C17.47 112.67, 23.95 104.34, 41.13 86.1 M17.25 119.67 C26.61 110.35, 34.3 102.9, 41.52 91.74 M17.25 119.67 C25.9 108.67, 36.41 98.52, 41.52 91.74 M22.23 120.03 C30.14 113.57, 33.67 106.53, 41.26 98.14 M22.23 120.03 C26.51 115.16, 31.83 108.39, 41.26 98.14 M27.88 119.63 C33.2 113.12, 37.02 108.96, 41.65 103.79 M27.88 119.63 C33.09 113.88, 38.51 108.19, 41.65 103.79 M32.86 119.99 C36.06 118.41, 35.76 115.47, 40.74 110.94 M32.86 119.99 C35.43 117.37, 38.74 113.42, 40.74 110.94" stroke="#4c6ef5" stroke-width="0.5" fill="none"></path><path d="M10 0 M10 0 C16.35 0.89, 21.09 1.74, 30 0 M10 0 C14.54 -0.92, 18.11 0.21, 30 0 M30 0 C37.24 -1.5, 40.07 4.55, 40 10 M30 0 C37.23 1.41, 40.95 3.16, 40 10 M40 10 C41.39 44.18, 40.62 78.13, 40 110 M40 10 C40.67 39.01, 40.73 67.68, 40 110 M40 110 C41.85 116.76, 38.62 119.34, 30 120 M40 110 C37.97 116.23, 36.06 119.05, 30 120 M30 120 C22.66 121.36, 14.38 120.06, 10 120 M30 120 C24.25 120.06, 18.21 119.03, 10 120 M10 120 C2.64 120.52, -0.47 116.76, 0 110 M10 120 C1.62 122.29, -0.53 116.29, 0 110 M0 110 C0.78 77.47, -1.91 42.98, 0 10 M0 110 C-1.64 71.61, -0.19 34.03, 0 10 M0 10 C1.25 3.79, 5.12 -1.6, 10 0 M0 10 C0.67 4.44, 1.16 1.3, 10 0" stroke="#364fc7" stroke-width="1" fill="none"></path></g><g stroke-opacity="0.7" fill-opacity="0.7" stroke-linecap="round" transform="translate(270 330.7324470643039) rotate(0 20 40)"><path d="M2.66 2.31 C2.66 2.31, 2.66 2.31, 2.66 2.31 M2.66 2.31 C2.66 2.31, 2.66 2.31, 2.66 2.31 M0.43 10.98 C2.8 10.81, 4.68 3.34, 10.27 -0.34 M0.43 10.98 C4.87 7.87, 8.84 0.93, 10.27 -0.34 M0.83 16.62 C6.49 8.4, 9.81 5.52, 13.29 2.28 M0.83 16.62 C2.49 13.79, 4.17 10.68, 13.29 2.28 M0.57 23.02 C8.18 14.42, 9.59 15.34, 18.28 2.64 M0.57 23.02 C5.07 18.5, 12.49 9.31, 18.28 2.64 M0.96 28.66 C7.62 17.28, 10.87 10.89, 23.27 3 M0.96 28.66 C5.11 23.71, 12.54 14.07, 23.27 3 M0.7 35.06 C11.64 25.52, 15.14 17.94, 28.25 3.36 M0.7 35.06 C10.61 23.2, 18.04 15.13, 28.25 3.36 M1.09 40.7 C10.85 24.2, 22.58 11.1, 35.21 1.46 M1.09 40.7 C11.69 29.99, 22.29 16.74, 35.21 1.46 M0.83 47.1 C12.82 33.59, 23.59 23.86, 38.23 4.08 M0.83 47.1 C8.74 37.45, 15.97 29.49, 38.23 4.08 M1.23 52.74 C13.71 40.29, 21.12 27.26, 41.25 6.7 M1.23 52.74 C18 35.82, 33.25 16.85, 41.25 6.7 M0.96 59.14 C7.66 46.81, 22.64 37.09, 40.98 13.1 M0.96 59.14 C14.16 45.8, 25.3 29.4, 40.98 13.1 M1.36 64.78 C18.16 43.29, 34.21 27.85, 41.38 18.75 M1.36 64.78 C13.3 50.22, 27.13 34.29, 41.38 18.75 M1.1 71.18 C14.59 54.8, 23.58 47.92, 41.12 25.14 M1.1 71.18 C14.38 57.47, 25.33 44.49, 41.12 25.14 M2.15 76.07 C13.06 57.55, 30.55 46.97, 41.51 30.79 M2.15 76.07 C9.34 64.64, 19.88 54.14, 41.51 30.79 M5.17 78.69 C12.24 64.37, 23.47 57, 41.25 37.18 M5.17 78.69 C14.46 66.32, 26.33 53.25, 41.25 37.18 M8.19 81.32 C13.78 71.81, 25.8 59.04, 41.65 42.83 M8.19 81.32 C19.8 69.78, 30.57 55.12, 41.65 42.83 M13.17 81.68 C26.06 68.42, 29.1 62.04, 41.38 49.22 M13.17 81.68 C22.02 70.73, 30.41 62.12, 41.38 49.22 M18.82 81.28 C27.89 71.79, 27.77 68.05, 41.12 55.62 M18.82 81.28 C24.87 74.53, 29.63 72.41, 41.12 55.62 M23.8 81.64 C29.02 79.02, 33.98 74.52, 41.52 61.27 M23.8 81.64 C29.94 73.26, 36.85 69.55, 41.52 61.27 M29.45 81.25 C34.75 74.28, 39.75 69.91, 41.26 67.66 M29.45 81.25 C32.71 79.55, 35.96 76.47, 41.26 67.66" stroke="#4c6ef5" stroke-width="0.5" fill="none"></path><path d="M10 0 M10 0 C17.65 -2.67, 22.17 1.16, 30 0 M10 0 C15.25 -1.71, 24.67 0.06, 30 0 M30 0 C39.3 0.04, 43.71 4.02, 40 10 M30 0 C40.54 -1.36, 37.46 3, 40 10 M40 10 C36.16 23.9, 41.84 41.22, 40 70 M40 10 C40.9 31.48, 40.05 55.56, 40 70 M40 70 C36.66 73.37, 38.14 76.87, 30 80 M40 70 C35.64 78.39, 33.05 82.5, 30 80 M30 80 C27.72 80.47, 19.55 79.48, 10 80 M30 80 C24.66 78.86, 13.82 79.51, 10 80 M10 80 C6.37 78.51, 3.13 77.6, 0 70 M10 80 C1.91 79.87, 1.12 79, 0 70 M0 70 C-0.36 56.33, -3.05 37.16, 0 10 M0 70 C-0.35 55, -0.42 37.95, 0 10 M0 10 C-2.01 3.17, -0.01 0.61, 10 0 M0 10 C2.87 7.18, -0.28 2.87, 10 0" stroke="#364fc7" stroke-width="1" fill="none"></path></g><g stroke-opacity="0.8" fill-opacity="0.8" stroke-linecap="round" transform="translate(490 250.73244706430393) rotate(0 20 100)"><path d="M2.66 2.31 C2.66 2.31, 2.66 2.31, 2.66 2.31 M2.66 2.31 C2.66 2.31, 2.66 2.31, 2.66 2.31 M0.43 10.98 C2.18 8.62, 4.99 3.17, 10.27 -0.34 M0.43 10.98 C2.34 8.81, 5.77 4.94, 10.27 -0.34 M0.83 16.62 C5.85 10.67, 8.29 10.06, 13.29 2.28 M0.83 16.62 C5.29 12.73, 7.95 8.05, 13.29 2.28 M0.57 23.02 C7.29 18.02, 13.4 10.07, 18.28 2.64 M0.57 23.02 C4.31 19.19, 8.63 14.36, 18.28 2.64 M0.96 28.66 C7.83 17.12, 18.02 8.01, 23.27 3 M0.96 28.66 C9.3 17.85, 18.24 8.08, 23.27 3 M0.7 35.06 C6.84 25.53, 17.74 16.49, 28.25 3.36 M0.7 35.06 C10.1 22.9, 20.08 12.97, 28.25 3.36 M0.44 41.46 C14.71 24.75, 28.89 11.25, 35.21 1.46 M0.44 41.46 C9.52 29.86, 19.7 19.78, 35.21 1.46 M0.83 47.1 C9.48 38.44, 19.41 29.13, 38.88 3.33 M0.83 47.1 C12.13 34.47, 23.81 20.62, 38.88 3.33 M0.57 53.5 C11.66 37.93, 24 23.92, 39.93 8.21 M0.57 53.5 C8.67 44.23, 16.45 34.39, 39.93 8.21 M0.96 59.14 C9.5 48.46, 20.76 35.87, 42.3 11.59 M0.96 59.14 C12.08 46.28, 25.34 31.29, 42.3 11.59 M0.7 65.54 C12.73 54.42, 20.76 40.38, 42.04 17.99 M0.7 65.54 C16.39 47.28, 30.78 29.55, 42.04 17.99 M0.44 71.93 C14.04 56.73, 26.82 45, 41.77 24.39 M0.44 71.93 C8.59 61.12, 18.66 50.25, 41.77 24.39 M0.84 77.58 C8.98 66.77, 20.64 55.35, 42.17 30.03 M0.84 77.58 C16.2 61.02, 31.58 44.01, 42.17 30.03 M0.57 83.98 C14.54 65.86, 28.03 48.82, 41.91 36.43 M0.57 83.98 C12.71 69.98, 24.07 57.66, 41.91 36.43 M0.97 89.62 C14.22 74.88, 23.99 62.53, 42.3 42.07 M0.97 89.62 C11.64 77.58, 20.55 66.83, 42.3 42.07 M0.71 96.02 C16.08 79.2, 33.9 59.16, 42.04 48.47 M0.71 96.02 C15.51 78.59, 30.81 61.24, 42.04 48.47 M0.45 102.41 C14.32 85.65, 30.75 67.73, 41.78 54.87 M0.45 102.41 C13.31 87.71, 24.64 74.35, 41.78 54.87 M0.84 108.06 C8.65 96.09, 16.9 86.59, 42.17 60.51 M0.84 108.06 C9.06 96.79, 19.27 85.65, 42.17 60.51 M0.58 114.46 C15.7 99.78, 25.33 83.6, 41.91 66.91 M0.58 114.46 C12.53 99.32, 25.11 85.58, 41.91 66.91 M0.97 120.1 C13.31 106.64, 27.52 89.88, 42.31 72.55 M0.97 120.1 C17.65 101.01, 33.35 82.21, 42.31 72.55 M0.71 126.5 C9.65 114.01, 21.62 104.22, 42.04 78.95 M0.71 126.5 C17.2 107.8, 32.7 89.69, 42.04 78.95 M0.45 132.89 C17.91 115.02, 32.26 97.07, 41.78 85.35 M0.45 132.89 C16.49 114.97, 30.89 96.43, 41.78 85.35 M0.85 138.54 C13.02 124.39, 27.35 110.52, 42.18 90.99 M0.85 138.54 C10.65 126.22, 21.16 115.07, 42.18 90.99 M0.58 144.93 C12.92 132.03, 26.67 115.36, 41.92 97.39 M0.58 144.93 C13.5 129.44, 27.5 114.41, 41.92 97.39 M0.98 150.58 C9.4 141.18, 16.51 133.01, 42.31 103.03 M0.98 150.58 C15.29 134.34, 28.75 118.43, 42.31 103.03 M0.72 156.98 C11.4 146.19, 19.47 133.29, 42.05 109.43 M0.72 156.98 C14.55 141.92, 27.12 126.38, 42.05 109.43 M0.46 163.37 C11.44 149.35, 21.19 139.98, 41.79 115.83 M0.46 163.37 C15.27 146.28, 30.8 127.91, 41.79 115.83 M0.85 169.02 C14.72 150.84, 29.79 134.26, 42.18 121.47 M0.85 169.02 C12.05 155, 24.18 141.21, 42.18 121.47 M0.59 175.41 C12.47 158.65, 25.72 143.88, 41.92 127.87 M0.59 175.41 C14.06 159.79, 28.54 143.44, 41.92 127.87 M0.98 181.06 C10.58 167.14, 20.67 155.18, 42.32 133.51 M0.98 181.06 C15.26 165.06, 28.61 149.45, 42.32 133.51 M0.72 187.46 C12.8 173.15, 21.64 163.01, 42.05 139.91 M0.72 187.46 C11.64 174.97, 22.17 164.27, 42.05 139.91 M2.43 191.59 C15.98 174.43, 30.89 159.91, 41.79 146.31 M2.43 191.59 C15.19 175.96, 29.36 159.51, 41.79 146.31 M2.82 197.23 C14.55 185.17, 26.35 169.95, 42.19 151.95 M2.82 197.23 C16.26 181.52, 30.05 166.3, 42.19 151.95 M5.84 199.86 C17.39 186.56, 30.89 169, 41.93 158.35 M5.84 199.86 C15.05 189.2, 25.4 177.14, 41.93 158.35 M11.49 199.46 C17.53 189.98, 26.22 179.31, 42.32 163.99 M11.49 199.46 C23.38 186.81, 34.25 173.79, 42.32 163.99 M16.47 199.82 C25.16 191.9, 31.94 182.47, 42.06 170.39 M16.47 199.82 C25.24 191.3, 31.97 180.45, 42.06 170.39 M21.46 200.18 C29.71 193.68, 36.87 185.31, 41.8 176.79 M21.46 200.18 C25.35 195.69, 30.82 189.32, 41.8 176.79 M26.45 200.54 C32.21 193.93, 40.01 186.52, 42.19 182.43 M26.45 200.54 C29.79 196.2, 33.97 193.07, 42.19 182.43 M31.43 200.9 C34.01 198.76, 36.58 193.53, 40.62 190.34 M31.43 200.9 C34.16 197.81, 37.64 193.12, 40.62 190.34" stroke="#82c91e" stroke-width="0.5" fill="none"></path><path d="M10 0 M10 0 C14.56 -0.75, 20.01 -1.43, 30 0 M10 0 C14.7 -0.08, 20.39 0.47, 30 0 M30 0 C36.87 1.94, 41.23 3.69, 40 10 M30 0 C34.61 2.27, 39.52 4.87, 40 10 M40 10 C41.8 77.02, 41.23 139.61, 40 190 M40 10 C41.5 76.1, 40.99 141.19, 40 190 M40 190 C40.77 197.54, 36.05 201.41, 30 200 M40 190 C40.07 198.76, 36.85 200.59, 30 200 M30 200 C23.8 201.48, 20.62 199.27, 10 200 M30 200 C22.55 200.38, 17.19 200.43, 10 200 M10 200 C1.7 199.74, 0.47 197.79, 0 190 M10 200 C3.7 198.95, -1.76 195.06, 0 190 M0 190 C-2.12 148, -3.22 100.67, 0 10 M0 190 C0.27 132.1, -0.59 74.72, 0 10 M0 10 C1.01 1.51, 2.14 1.38, 10 0 M0 10 C-1.17 5.04, 5.25 -1.48, 10 0" stroke="#5c940d" stroke-width="1" fill="none"></path></g><g stroke-linecap="round"><g transform="translate(90.83924845674494 191.5450946774244) rotate(0 88.60756592022977 -0.8669137685702992)"><path d="M-0.08 1.04 C29.92 0.86, 149.25 -0.63, 178.79 -0.81 M-1.58 0.53 C28.42 -0.04, 147.98 -2.38, 178.18 -2.77" stroke="#495057" stroke-width="1" fill="none"></path></g><g transform="translate(90.83924845674494 191.5450946774244) rotate(0 88.60756592022977 -0.8669137685702992)"><path d="M151.89 9.01 C156.33 4.21, 163.26 4.58, 178.32 -3.52 M151.08 8.44 C158.99 4.61, 167.61 0.58, 177.57 -3.37" stroke="#495057" stroke-width="1" fill="none"></path></g><g transform="translate(90.83924845674494 191.5450946774244) rotate(0 88.60756592022977 -0.8669137685702992)"><path d="M151.54 -11.5 C156.09 -12.16, 163.09 -7.65, 178.32 -3.52 M150.73 -12.08 C158.65 -9.32, 167.38 -6.77, 177.57 -3.37" stroke="#495057" stroke-width="1" fill="none"></path></g></g><g stroke-linecap="round"><g transform="translate(311.01463193905545 172.02117085451295) rotate(0 10.71794613655004 10.075885045922433)"><path d="M0.29 -1.18 C3.67 -0.71, 15.92 0.82, 19.3 3.74 C22.67 6.65, 23.72 13.5, 20.55 16.33 C17.38 19.16, 3.55 19.74, 0.3 20.73 M-1.01 0.82 C2.31 1.4, 14.91 2.98, 18.47 5.23 C22.03 7.48, 23.29 11.64, 20.33 14.32 C17.37 17, 4.08 19.89, 0.72 21.33" stroke="#364fc7" stroke-width="1" fill="none"></path></g><g transform="translate(311.01463193905545 172.02117085451295) rotate(0 10.71794613655004 10.075885045922433)"><path d="M7.8 15.29 C7.03 17.35, 5.87 18.1, -0.1 22.25 M8.91 14.82 C5.57 17.69, 3.45 19.28, 0.64 21.04" stroke="#364fc7" stroke-width="1" fill="none"></path></g><g transform="translate(311.01463193905545 172.02117085451295) rotate(0 10.71794613655004 10.075885045922433)"><path d="M9.92 21.95 C8.63 22.56, 7.01 21.86, -0.1 22.25 M11.03 21.47 C6.95 22.03, 4.09 21.31, 0.64 21.04" stroke="#364fc7" stroke-width="1" fill="none"></path></g></g><g stroke-linecap="round"><g transform="translate(310.41098561664705 251.3525675838469) rotate(0 8.948748580284757 -9.453781404112277)"><path d="M-0.11 0.96 C2.84 -0.36, 15.22 -4.15, 17.99 -6.86 C20.76 -9.57, 19.5 -13.12, 16.5 -15.29 C13.51 -17.46, 2.83 -18.98, 0.03 -19.87 M-1.63 0.42 C1.14 -0.28, 14.04 -3.55, 16.99 -5.94 C19.95 -8.34, 18.85 -11.79, 16.1 -13.94 C13.36 -16.09, 3.48 -17.71, 0.51 -18.84" stroke="#364fc7" stroke-width="1" fill="none"></path></g><g transform="translate(310.41098561664705 251.3525675838469) rotate(0 8.948748580284757 -9.453781404112277)"><path d="M9.56 -19.57 C5.36 -18.81, 3.53 -18.77, 0.41 -18.79 M8.55 -19.13 C7.21 -19.64, 5.29 -19.47, 0.27 -18.89" stroke="#364fc7" stroke-width="1" fill="none"></path></g><g transform="translate(310.41098561664705 251.3525675838469) rotate(0 8.948748580284757 -9.453781404112277)"><path d="M8.02 -14.03 C4.27 -15.06, 2.94 -16.81, 0.41 -18.79 M7.02 -13.6 C6.02 -15.33, 4.45 -16.39, 0.27 -18.89" stroke="#364fc7" stroke-width="1" fill="none"></path></g></g><g stroke-linecap="round"><g transform="translate(269 249.78030502654036) rotate(0 -89.3321756284405 0.22317699882631814)"><path d="M1.01 -0.88 C-28.61 -0.85, -148.64 -0.17, -178.48 -0.03 M0.08 1.27 C-29.68 1.45, -149.87 1.13, -179.67 1.06" stroke="#364fc7" stroke-width="1" fill="none"></path></g><g transform="translate(269 249.78030502654036) rotate(0 -89.3321756284405 0.22317699882631814)"><path d="M-152.93 -9.92 C-159.62 -6.43, -166.29 -3.82, -181.16 1.04 M-152.08 -8.89 C-159.79 -6.98, -167.27 -3.98, -178.85 0.12" stroke="#364fc7" stroke-width="1" fill="none"></path></g><g transform="translate(269 249.78030502654036) rotate(0 -89.3321756284405 0.22317699882631814)"><path d="M-152.98 10.6 C-159.62 9.2, -166.28 6.92, -181.16 1.04 M-152.13 11.63 C-159.67 8.14, -167.14 5.74, -178.85 0.12" stroke="#364fc7" stroke-width="1" fill="none"></path></g></g><g stroke-linecap="round"><g transform="translate(91 290.7324470643039) rotate(0 198.7402011298202 -0.3868656744565442)"><path d="M0.98 0.66 C67.03 0.92, 331.27 0.6, 397.44 0.39 M0.04 -0.03 C65.78 -0.05, 329.99 -1.6, 396.2 -1.53" stroke="#495057" stroke-width="1" fill="none"></path></g><g transform="translate(91 290.7324470643039) rotate(0 198.7402011298202 -0.3868656744565442)"><path d="M369.15 7.88 C379.96 4.54, 389.5 0.45, 396.18 -1.18 M367.47 9.15 C375.35 6.56, 383.68 2.45, 396.04 -1.62" stroke="#495057" stroke-width="1" fill="none"></path></g><g transform="translate(91 290.7324470643039) rotate(0 198.7402011298202 -0.3868656744565442)"><path d="M369.09 -12.64 C379.74 -7.83, 389.3 -3.78, 396.18 -1.18 M367.42 -11.37 C375.12 -8.1, 383.46 -6.35, 396.04 -1.62" stroke="#495057" stroke-width="1" fill="none"></path></g></g><g stroke-linecap="round"><g transform="translate(489 350.7324470643039) rotate(0 -89.38404097263702 0.1100253478095965)"><path d="M0.2 0.91 C-29.46 0.95, -148.17 -0.49, -178.01 -0.69 M-1.16 0.33 C-30.97 0.6, -149.75 0.39, -178.96 0.49" stroke="#5c940d" stroke-width="1" fill="none"></path></g><g transform="translate(489 350.7324470643039) rotate(0 -89.38404097263702 0.1100253478095965)"><path d="M-149.27 -9.8 C-160.33 -8.16, -167.93 -3.56, -177.22 0.45 M-151.38 -10.33 C-156.07 -7.63, -163.82 -4.61, -178.16 -0.11" stroke="#5c940d" stroke-width="1" fill="none"></path></g><g transform="translate(489 350.7324470643039) rotate(0 -89.38404097263702 0.1100253478095965)"><path d="M-149.26 10.72 C-160.16 6.3, -167.76 4.83, -177.22 0.45 M-151.37 10.19 C-156.21 8.32, -163.96 6.76, -178.16 -0.11" stroke="#5c940d" stroke-width="1" fill="none"></path></g></g><g stroke-linecap="round"><g transform="translate(311 390.7324470643039) rotate(0 88.63562984801831 0.07631290211128317)"><path d="M-0.36 0.01 C29.22 0.17, 148.03 -0.34, 177.63 -0.24 M1.65 -1.02 C31.02 -0.58, 146.81 1.23, 176.49 1.18" stroke="#364fc7" stroke-width="1" fill="none"></path></g><g transform="translate(311 390.7324470643039) rotate(0 88.63562984801831 0.07631290211128317)"><path d="M148.25 10.6 C156.8 6.93, 167.15 6.37, 175.33 0.25 M147.61 11.31 C155.12 7.96, 163.64 5.11, 176.58 0.26" stroke="#364fc7" stroke-width="1" fill="none"></path></g><g transform="translate(311 390.7324470643039) rotate(0 88.63562984801831 0.07631290211128317)"><path d="M148.41 -9.92 C156.71 -7.16, 167 -1.27, 175.33 0.25 M147.77 -9.21 C155.31 -6.95, 163.79 -4.2, 176.58 0.26" stroke="#364fc7" stroke-width="1" fill="none"></path></g></g><g stroke-linecap="round"><g transform="translate(489 430.7324470643039) rotate(0 -198.18686085086318 -0.6453103646778686)"><path d="M-0.44 -0.28 C-66.52 -0.58, -330.98 -0.94, -397.32 -0.87 M1.54 -1.47 C-64.57 -1.73, -331.08 -0.3, -397.91 0.21" stroke="#5c940d" stroke-width="1" fill="none"></path></g><g transform="translate(489 430.7324470643039) rotate(0 -198.18686085086318 -0.6453103646778686)"><path d="M-370.25 -9.09 C-377.65 -8.65, -382.41 -6.41, -398.71 0.8 M-369.57 -10.11 C-379.44 -6.04, -390.87 -3.31, -398.38 1.21" stroke="#5c940d" stroke-width="1" fill="none"></path></g><g transform="translate(489 430.7324470643039) rotate(0 -198.18686085086318 -0.6453103646778686)"><path d="M-370.12 11.44 C-377.71 7.13, -382.5 4.63, -398.71 0.8 M-369.44 10.41 C-379.4 6.98, -390.89 2.22, -398.38 1.21" stroke="#5c940d" stroke-width="1" fill="none"></path></g></g><g transform="translate(33.64111538604516 47.67536105692298) rotate(0 33.5 12.500000000000014)"><text x="0" y="18" font-family="Virgil, Segoe UI Emoji" font-size="20px" fill="#495057" text-anchor="start" style="white-space: pre;" direction="ltr">Cliente</text></g><g transform="translate(250.9760523450227 35.74748698358229) rotate(0 39.5 25)"><text x="39.5" y="18" font-family="Virgil, Segoe UI Emoji" font-size="20px" fill="#364fc7" text-anchor="middle" style="white-space: pre;" direction="ltr">Servidor</text><text x="39.5" y="43" font-family="Virgil, Segoe UI Emoji" font-size="20px" fill="#364fc7" text-anchor="middle" style="white-space: pre;" direction="ltr">OAuth</text></g><g transform="translate(466.5956932728009 20.519526882706316) rotate(0 44.5 37.5)"><text x="44.5" y="18" font-family="Virgil, Segoe UI Emoji" font-size="20px" fill="#5c940d" text-anchor="middle" style="white-space: pre;" direction="ltr">Servidor</text><text x="44.5" y="43" font-family="Virgil, Segoe UI Emoji" font-size="20px" fill="#5c940d" text-anchor="middle" style="white-space: pre;" direction="ltr">de</text><text x="44.5" y="68" font-family="Virgil, Segoe UI Emoji" font-size="20px" fill="#5c940d" text-anchor="middle" style="white-space: pre;" direction="ltr">Recursos</text></g><g transform="translate(99.82867163238484 141.56013973389815) rotate(0 69 20)"><text x="0" y="14" font-family="Virgil, Segoe UI Emoji" font-size="16px" fill="#495057" text-anchor="start" style="white-space: pre;" direction="ltr">1. Req. Token de </text><text x="0" y="34" font-family="Virgil, Segoe UI Emoji" font-size="16px" fill="#495057" text-anchor="start" style="white-space: pre;" direction="ltr">acesso </text></g><g stroke-linecap="round"><g transform="translate(66.34468451854491 109.34080091983719) rotate(0 1.1228813798487067 18.280474288082416)"><path d="M0.44 -1.1 C0.82 5.1, 1.85 31.19, 1.8 37.66" stroke="#495057" stroke-width="1.5" fill="none" stroke-dasharray="8 9"></path></g></g><g stroke-linecap="round"><g transform="translate(288.7593906955607 110.47556982890359) rotate(0 1.1167633774874162 19.561061376399095)"><path d="M0.22 1.2 C0.38 7.52, 1.78 31.63, 2.01 37.92" stroke="#364fc7" stroke-width="1.5" fill="none" stroke-dasharray="8 9"></path></g></g><g stroke-linecap="round"><g transform="translate(285.35508396836144 270.477986007267) rotate(0 -0.008111450448666346 29.723551484332887)"><path d="M-1.03 0.39 C-0.83 10.12, 0.82 48.91, 1.01 59.05" stroke="#364fc7" stroke-width="1.5" fill="none" stroke-dasharray="8 9"></path></g></g><g stroke-linecap="round"><g transform="translate(507.7697901453772 111.61033873797004) rotate(0 1.1590162249649438 69.663089191361)"><path d="M-0.26 -0.23 C-0.02 22.96, 2.09 116.43, 2.58 139.56" stroke="#5c940d" stroke-width="1.5" fill="none" stroke-dasharray="8 9"></path></g></g><g transform="translate(322.7928992387366 146.59678837342705) rotate(0 71.5 10)"><text x="71.5" y="14" font-family="Virgil, Segoe UI Emoji" font-size="16px" fill="#364fc7" text-anchor="middle" style="white-space: pre;" direction="ltr">2. Verifica Cliente</text></g><g transform="translate(330.29109404761266 202.4763334055682) rotate(0 73.5 10)"><text x="73.5" y="14" font-family="Virgil, Segoe UI Emoji" font-size="16px" fill="#364fc7" text-anchor="middle" style="white-space: pre;" direction="ltr">3. Concede Cliente</text></g><g transform="translate(97.33911742545502 209.4114002168419) rotate(0 70 20)"><text x="70" y="14" font-family="Virgil, Segoe UI Emoji" font-size="16px" fill="#364fc7" text-anchor="middle" style="white-space: pre;" direction="ltr">4. Retorna Token</text><text x="70" y="34" font-family="Virgil, Segoe UI Emoji" font-size="16px" fill="#364fc7" text-anchor="middle" style="white-space: pre;" direction="ltr">de acesso</text></g><g transform="translate(97.26096615292386 299.790591097392) rotate(0 61 10)"><text x="61" y="14" font-family="Virgil, Segoe UI Emoji" font-size="16px" fill="#495057" text-anchor="middle" style="white-space: pre;" direction="ltr">5. Req. recurso</text></g><g transform="translate(324.9842857843381 316.8121247333881) rotate(0 62.5 10)"><text x="62.5" y="14" font-family="Virgil, Segoe UI Emoji" font-size="16px" fill="#5c940d" text-anchor="middle" style="white-space: pre;" direction="ltr">6. Valida Token</text></g><g transform="translate(316.13659669367405 371.2810323685756) rotate(0 60 10)"><text x="60" y="14" font-family="Virgil, Segoe UI Emoji" font-size="16px" fill="#364fc7" text-anchor="middle" style="white-space: pre;" direction="ltr">7. Token Válido</text></g><g transform="translate(128.92126033371312 409.8631752768335) rotate(0 77 10)"><text x="77" y="14" font-family="Virgil, Segoe UI Emoji" font-size="16px" fill="#5c940d" text-anchor="middle" style="white-space: pre;" direction="ltr">8. Retorna recurso</text></g></svg>